<svg width="92" height="92" viewBox="0 0 92 92" fill="none" xmlns="http://www.w3.org/2000/svg">
<path d="M37.0644 21.397C35.5498 19.8823 33.0981 19.8817 31.5832 21.3969L30.1886 22.7912L30.1796 22.7823C28.6649 21.2675 26.2134 21.2671 24.6984 22.7823C23.1838 24.2965 23.1829 26.7485 24.6983 28.2634L27.448 31.0132C28.9628 32.528 31.4144 32.5281 32.9294 31.0132L37.0644 26.8782C38.5753 25.3669 38.5753 22.908 37.0644 21.397ZM35.1582 24.9723L31.0233 29.1072C30.5622 29.5687 29.815 29.5687 29.354 29.1072L26.604 26.3575C26.1428 25.8961 26.1426 25.1498 26.6042 24.688C27.0646 24.2275 27.811 24.2257 28.2735 24.688L29.2355 25.6501C29.7619 26.1764 30.6152 26.1764 31.1413 25.6501L33.4888 23.3028C33.9496 22.8417 34.697 22.8414 35.1581 23.3028C35.6186 23.763 35.6186 24.5119 35.1582 24.9723Z" fill="#17A3E7"/>
<path d="M64.4563 27.3852H50.0905C49.3461 27.3852 48.7428 27.9885 48.7428 28.7328C48.7428 29.4771 49.3461 30.0805 50.0905 30.0805H64.4563C66.1254 30.0805 67.4834 28.7224 67.4834 27.0533V25.0935C67.4834 23.4243 66.1254 22.0663 64.4563 22.0663H44.1135C42.4444 22.0663 41.0863 23.4243 41.0863 25.0935V27.0533C41.0863 28.7224 42.4444 30.0805 44.1135 30.0805H50.989C51.7334 30.0805 52.3366 29.4771 52.3366 28.7328C52.3366 27.9885 51.7334 27.3852 50.989 27.3852H44.1135C43.9304 27.3852 43.7816 27.2362 43.7816 27.0533V25.0935C43.7816 24.9105 43.9304 24.7616 44.1135 24.7616H64.4563C64.6394 24.7616 64.7882 24.9105 64.7882 25.0935V27.0533C64.788 27.2364 64.6392 27.3852 64.4563 27.3852Z" fill="#17A3E7"/>
<path d="M37.0644 37.1189C35.5498 35.6042 33.0981 35.6036 31.5832 37.1189L30.1886 38.5133L30.1796 38.5043C28.665 36.9897 26.2132 36.9892 24.6984 38.5043C23.1838 40.0186 23.1829 42.4706 24.6983 43.9855L27.448 46.7353C28.9628 48.25 31.4143 48.25 32.9294 46.7353L37.0644 42.6003C38.5753 41.0888 38.5753 38.6301 37.0644 37.1189ZM35.1582 40.6942L31.0233 44.8292C30.5622 45.2904 29.815 45.2906 29.354 44.8292L26.604 42.0794C26.1428 41.618 26.1426 40.8717 26.6042 40.4099C27.0644 39.9496 27.811 39.9476 28.2735 40.4099L29.2355 41.372C29.7619 41.8983 30.6152 41.8983 31.1413 41.372L33.4888 39.0247C33.9496 38.5636 34.697 38.5633 35.1581 39.0247C35.6186 39.4851 35.6186 40.234 35.1582 40.6942Z" fill="#17A3E7"/>
<path d="M67.5613 40.9469C67.5613 39.2777 66.2032 37.9197 64.5341 37.9197H44.1915C42.5224 37.9197 41.1643 39.2777 41.1643 40.9469V42.9067C41.1643 44.5758 42.5224 45.9339 44.1915 45.9339H64.5343C66.2034 45.9339 67.5614 44.5758 67.5614 42.9067V40.9469H67.5613ZM64.866 42.9067C64.866 43.0896 64.7172 43.2386 64.5341 43.2386H44.1915C44.0084 43.2386 43.8596 43.0896 43.8596 42.9067V40.9469C43.8596 40.7639 44.0084 40.615 44.1915 40.615H64.5343C64.7174 40.615 64.8662 40.7639 64.8662 40.9469V42.9067H64.866Z" fill="#17A3E7"/>
<path d="M37.0644 52.841C35.5498 51.3262 33.0981 51.3257 31.5832 52.8408L30.1886 54.2352L30.1796 54.2262C28.6649 52.7115 26.2134 52.7111 24.6984 54.2262C23.1838 55.7404 23.1829 58.1925 24.6983 59.7074L27.448 62.4572C28.9628 63.9719 31.4144 63.9721 32.9294 62.4572L37.0644 58.3222C38.5753 56.8108 38.5753 54.3522 37.0644 52.841ZM35.1582 56.4163L31.0233 60.5512C30.5622 61.0127 29.815 61.0127 29.354 60.5512L26.604 57.8015C26.1428 57.34 26.1426 56.5938 26.6042 56.132C27.0646 55.6715 27.811 55.6697 28.2735 56.132L29.2355 57.094C29.7619 57.6203 30.6152 57.6203 31.1413 57.094L33.4888 54.7468C33.9496 54.2857 34.697 54.2853 35.1581 54.7468C35.6186 55.2071 35.6186 55.9559 35.1582 56.4163Z" fill="#17A3E7"/>
<path d="M67.5613 56.6691C67.5613 55 66.2032 53.642 64.5341 53.642H44.1915C42.5224 53.642 41.1643 55 41.1643 56.6691V58.629C41.1643 60.2981 42.5224 61.6561 44.1915 61.6561H64.5343C66.2034 61.6561 67.5614 60.2981 67.5614 58.629V56.6691H67.5613ZM64.866 58.6288C64.866 58.8117 64.7172 58.9607 64.5341 58.9607H44.1915C44.0084 58.9607 43.8596 58.8117 43.8596 58.6288V56.6691C43.8596 56.4862 44.0084 56.3373 44.1915 56.3373H64.5343C64.7174 56.3373 64.8662 56.4862 64.8662 56.6691V58.6288H64.866Z" fill="#17A3E7"/>
<path d="M31.5832 68.5628L30.1886 69.957L30.1796 69.948C28.6649 68.4333 26.2134 68.4329 24.6984 69.948C23.1838 71.4623 23.1829 73.9143 24.6983 75.4292L27.448 78.179C28.9628 79.6938 31.4144 79.6939 32.9294 78.179L37.0644 74.044C38.5753 72.5328 38.5753 70.074 37.0644 68.563C35.5498 67.0482 33.0979 67.0475 31.5832 68.5628ZM35.1582 72.1382L31.0233 76.2732C30.5622 76.7347 29.815 76.7347 29.354 76.2732L26.604 73.5235C26.1428 73.062 26.1426 72.3158 26.6042 71.854C27.0646 71.3934 27.811 71.3916 28.2735 71.854L29.2355 72.816C29.7615 73.342 30.6152 73.3423 31.1413 72.816L33.4888 70.4688C33.9496 70.0077 34.697 70.0073 35.1581 70.4688C35.6186 70.929 35.6186 71.6779 35.1582 72.1382Z" fill="#17A3E7"/>
<path d="M64.5343 74.6825H50.1685C49.4241 74.6825 48.8209 75.2859 48.8209 76.0302C48.8209 76.7744 49.4241 77.3778 50.1685 77.3778H64.5343C66.2034 77.3778 67.5614 76.0198 67.5614 74.3506V72.3908C67.5614 70.7217 66.2034 69.3636 64.5343 69.3636H44.1915C42.5224 69.3636 41.1643 70.7217 41.1643 72.3908V74.3506C41.1643 76.0198 42.5224 77.3778 44.1915 77.3778H51.067C51.8114 77.3778 52.4146 76.7744 52.4146 76.0302C52.4146 75.2859 51.8114 74.6825 51.067 74.6825H44.1915C44.0084 74.6825 43.8596 74.5336 43.8596 74.3506V72.3908C43.8596 72.2079 44.0084 72.0589 44.1915 72.0589H64.5343C64.7174 72.0589 64.8662 72.2079 64.8662 72.3908V74.3506C64.866 74.5337 64.7172 74.6825 64.5343 74.6825Z" fill="#17A3E7"/>
<path fill-rule="evenodd" clip-rule="evenodd" d="M74.4763 49.5642C74.4763 50.3085 73.8731 50.9118 73.1287 50.9118C72.3844 50.9118 71.781 50.3086 71.7812 49.5644V46.8465C71.7811 46.8539 71.781 46.8614 71.781 46.8688V84.7776C71.781 85.4906 71.2008 86.0708 70.4878 86.0708H20.8549C20.142 86.0708 19.5619 85.4906 19.5619 84.7776V17.4741H27.2856C29.4847 17.4741 31.2739 15.6849 31.2739 13.4858V5.76194H53.7873L55.5626 3.06665H29.9264C29.5859 3.06665 29.2346 3.20016 28.9733 3.46142L17.2612 15.1735C17.0007 15.4339 16.8666 15.783 16.8666 16.1264V84.7776C16.8666 86.9768 18.6558 88.7661 20.8549 88.7661H70.4878C72.687 88.7661 74.4763 86.9768 74.4763 84.7776V49.5642ZM27.2857 14.7788C27.9985 14.7788 28.5788 14.1987 28.5788 13.4858V7.66787L21.4679 14.7788H27.2857Z" fill="#17A3E7"/>
<path d="M73.1287 50.9118C73.8731 50.9118 74.4763 50.3085 74.4763 49.5642V46.8688C74.4763 46.1246 73.8731 45.5212 73.1287 45.5212C72.3917 45.5212 71.7931 46.1125 71.7812 46.8465V49.5644C71.781 50.3086 72.3844 50.9118 73.1287 50.9118Z" fill="#17A3E7"/>
<path d="M74.4763 46.8688V29.3157L71.7812 30.0623V46.8465C71.7931 46.1125 72.3917 45.5212 73.1287 45.5212C73.8731 45.5212 74.4763 46.1246 74.4763 46.8688Z" fill="#17A3E7"/>
<path d="M55.5626 3.06665L53.7873 5.76194L70.5117 5.76197C71.2247 5.76197 71.8049 6.34218 71.8049 7.05517L71.7812 30.0623L74.4763 29.3157L74.5002 7.05517C74.5002 4.856 72.7109 3.06668 70.5117 3.06668L55.5626 3.06665Z" fill="#17A3E7"/>
</svg>
