<svg width="92" height="92" viewBox="0 0 92 92" fill="none" xmlns="http://www.w3.org/2000/svg">
<g clip-path="url(#clip0)">
<path d="M37.4156 23.6031C34.0787 23.6031 31.3733 26.3085 31.3733 29.6454C31.3733 32.9826 34.0787 35.6877 37.4156 35.6877C40.7491 35.6792 43.4494 32.9789 43.4579 29.6454C43.4579 26.3083 40.7526 23.6031 37.4156 23.6031ZM37.4156 32.597C35.789 32.5885 34.4725 31.2721 34.464 29.6454C34.464 28.0153 35.7855 26.6938 37.4156 26.6938C39.0458 26.6938 40.3672 28.0153 40.3672 29.6454C40.3672 31.2756 39.0458 32.597 37.4156 32.597Z" fill="#039BE5"/>
<path d="M54.6307 23.5876C51.2938 23.5876 48.5885 26.293 48.5885 29.6299C48.5885 32.9669 51.2938 35.6722 54.6307 35.6722C57.9677 35.6722 60.673 32.9669 60.673 29.6299C60.6645 26.2962 57.9642 23.5961 54.6307 23.5876ZM54.6307 32.597C53.0006 32.597 51.6791 31.2755 51.6791 29.6454C51.6791 28.0152 53.0006 26.6938 54.6307 26.6938C56.2609 26.6938 57.5823 28.0152 57.5823 29.6454C57.5823 31.2755 56.2609 32.597 54.6307 32.597Z" fill="#039BE5"/>
<path d="M54.6307 39.2112H37.4156C36.5622 39.2112 35.8703 39.9031 35.8703 40.7565C35.8703 41.6099 36.5622 42.3019 37.4156 42.3019H54.6307C55.4842 42.3019 56.1761 41.6099 56.1761 40.7565C56.1761 39.9031 55.4842 39.2112 54.6307 39.2112Z" fill="#039BE5"/>
<path d="M50.9374 59.6715H45.4978L51.9109 54.4328C52.5992 53.9281 52.7479 52.9611 52.2432 52.2728C51.7384 51.5845 50.7714 51.4358 50.0832 51.9406C50.0419 51.9709 50.0021 52.0033 49.9638 52.0375L40.1818 60.0115C39.5161 60.5456 39.4093 61.5182 39.9434 62.1838C40.2382 62.5512 40.6844 62.7641 41.1554 62.7622V62.7776H46.8422L40.1354 68.6499C39.5198 69.2412 39.5001 70.2194 40.0914 70.8349C40.6466 71.4128 41.5512 71.4706 42.1753 70.968L51.9573 62.3759C52.5975 61.8114 52.6587 60.8348 52.0943 60.1946C51.8012 59.8626 51.3801 59.6721 50.9374 59.6715Z" fill="#039BE5"/>
<path d="M84.2395 62.7467L82.8796 60.2742C80.413 55.9953 76.2344 52.9751 71.3977 51.9757V38.3612C71.366 24.9681 60.9365 13.9027 47.5685 13.0794V9.8342C50.2167 8.98079 51.6716 6.142 50.8182 3.49386C49.9648 0.845722 47.1262 -0.609217 44.4778 0.244198C41.8297 1.09761 40.3748 3.93621 41.2282 6.58454C41.7254 8.12757 42.9348 9.3368 44.4778 9.8342V13.0794C31.1064 13.8952 20.6728 24.965 20.6487 38.3612V51.9757C15.805 52.9784 11.621 56.004 9.15132 60.2896L7.80687 62.7313C4.80679 63.2097 2.59907 65.7974 2.59907 68.8354C2.59907 69.6888 3.291 70.3807 4.14441 70.3807C4.99783 70.3807 5.68976 69.6888 5.68976 68.8354C5.68976 67.1283 7.07342 65.7447 8.78044 65.7447C10.4875 65.7447 11.8711 67.1283 11.8711 68.8354C11.8711 69.6888 12.5631 70.3807 13.4165 70.3807C14.2699 70.3807 14.9618 69.6888 14.9618 68.8354C14.9581 66.3381 13.4522 64.0883 11.1448 63.133L11.8711 61.8195C13.7844 58.5111 16.9568 56.1191 20.6641 55.19V75.6194C20.6693 75.7994 20.7058 75.9774 20.7723 76.1448V76.2375C20.8102 76.3293 20.8567 76.4174 20.9114 76.5003L32.1151 91.3819C32.407 91.7709 32.865 92 33.3514 92H58.7259C59.2123 92 59.6703 91.7709 59.9622 91.3819L71.0886 76.5312C71.1433 76.4483 71.1898 76.3602 71.2277 76.2685V76.1757C71.2942 76.0083 71.3307 75.8304 71.3359 75.6503V55.19C75.042 56.1122 78.2152 58.499 80.1289 61.8041L80.8552 63.133C78.5478 64.0883 77.0419 66.3381 77.0382 68.8354C77.0382 69.6888 77.7301 70.3807 78.5835 70.3807C79.4369 70.3807 80.1289 69.6888 80.1289 68.8354C80.1289 67.1283 81.5125 65.7447 83.2196 65.7447C84.9266 65.7447 86.3102 67.1283 86.3102 68.8354C86.3102 69.6888 87.0022 70.3807 87.8556 70.3807C88.709 70.3807 89.4009 69.6888 89.4009 68.8354C89.3971 65.8181 87.2154 63.2445 84.2395 62.7467ZM44.076 5.0591C44.076 3.98373 44.9478 3.11197 46.0232 3.11197C47.0985 3.11197 47.9703 3.98373 47.9703 5.0591C47.9703 6.13446 47.0985 7.00623 46.0232 7.00623C44.9513 6.99773 44.0844 6.13099 44.076 5.0591ZM34.0931 88.9094L25.2847 77.1493H35.8548L38.2965 88.9094H34.0931ZM50.6437 88.9094H41.4644L39.0228 77.1493H53.0854L50.6437 88.9094ZM57.9687 88.9094H53.7499L56.1915 77.1493H66.7153L57.9687 88.9094ZM23.7393 74.0586V48.3596H68.307L68.3225 74.0586H23.7393ZM23.7393 45.2534V38.3612C23.7393 26.0541 33.7161 16.0774 46.0232 16.0774C58.3303 16.0774 68.307 26.0541 68.307 38.3612L68.3225 45.2534H23.7393Z" fill="#039BE5"/>
</g>
<defs>
<clipPath id="clip0">
<rect width="92" height="92" fill="white"/>
</clipPath>
</defs>
</svg>
