<svg width="92" height="94" viewBox="0 0 92 94" fill="none" xmlns="http://www.w3.org/2000/svg">
<g clip-path="url(#clip0)">
<path d="M85.4601 64.3914C85.6203 64.1755 85.7178 63.9187 85.7418 63.6499C85.7658 63.3811 85.7153 63.1109 85.5959 62.8695C85.4765 62.6281 85.293 62.4251 85.0659 62.2832C84.8388 62.1413 84.5771 62.0661 84.3101 62.0661H68.3539C68.0203 60.4259 67.1376 58.9521 65.8545 57.8932C64.5714 56.8343 62.9665 56.255 61.3101 56.2529H56.9976V52.7483C62.0438 51.7191 66.7211 49.3305 70.5351 45.8352L73.2304 48.5601L75.2634 46.5048L72.5665 43.7784C73.3263 42.931 74.0364 42.0394 74.6929 41.108L72.3507 39.4227C71.7869 40.222 71.1793 40.9889 70.5308 41.7196L68.4865 39.6528C72.3566 35.2194 74.4095 29.4613 74.2273 23.5512C74.045 17.6411 71.6413 12.0235 67.5055 7.84242C63.3698 3.66135 57.8132 1.2313 51.9673 1.04718C46.1215 0.863054 40.426 2.9387 36.0409 6.85139L33.9966 4.78443C34.7194 4.1288 35.478 3.51461 36.2687 2.94474L34.6016 0.576595C33.6806 1.24046 32.7989 1.95835 31.9611 2.72657L29.2641 0L27.2311 2.05532L29.9265 4.78026C19.7197 16.1756 20.0496 33.8449 30.9182 44.8331C35.6031 49.5784 41.7728 52.5313 48.3726 53.187V56.2529H44.0601C42.1546 56.2551 40.3276 57.0214 38.9802 58.3836C37.6327 59.7459 36.8748 61.5929 36.8726 63.5194C36.8726 63.9049 37.0241 64.2745 37.2937 64.5471C37.5633 64.8196 37.9289 64.9727 38.3101 64.9727H43.5065C42.9328 66.3531 42.6373 67.8353 42.6373 69.3326C42.6373 70.8299 42.9328 72.3121 43.5065 73.6925H26.6091C25.808 72.3825 25.3836 70.8728 25.3836 69.3326C25.3836 67.7925 25.808 66.2827 26.6091 64.9727H38.3373V62.0661H17.2269C17.0037 62.0661 16.7836 62.1187 16.584 62.2196C16.3844 62.3205 16.2108 62.467 16.0769 62.6474C14.6548 64.5798 13.8868 66.9241 13.8868 69.3326C13.8868 71.7411 14.6548 74.0854 16.0769 76.0178C16.2108 76.1983 16.3844 76.3448 16.584 76.4457C16.7836 76.5466 17.0037 76.5991 17.2269 76.5991H20.5065C19.7569 78.3971 19.4843 80.3618 19.7159 82.2989C19.9475 84.236 20.6751 86.0785 21.8269 87.6441C21.9608 87.8246 22.1344 87.9711 22.334 88.072C22.5336 88.1729 22.7537 88.2255 22.9769 88.2255H90.0601C90.3271 88.2255 90.5888 88.1503 90.8159 88.0084C91.043 87.8665 91.2265 87.6635 91.3459 87.4221C91.4653 87.1807 91.5158 86.9105 91.4918 86.6417C91.4678 86.3729 91.3703 86.1161 91.2101 85.9002C90.1591 84.4719 89.5915 82.7392 89.5915 80.959C89.5915 79.1788 90.1591 77.446 91.2101 76.0178C91.3703 75.8019 91.4678 75.5451 91.4918 75.2763C91.5158 75.0075 91.4653 74.7373 91.3459 74.4959C91.2265 74.2545 91.043 74.0514 90.8159 73.9096C90.5888 73.7677 90.3271 73.6925 90.0601 73.6925H85.0673C84.2035 72.2808 83.7791 70.6394 83.8491 68.9809C83.9192 67.3224 84.4804 65.7235 85.4601 64.3914ZM81.8393 64.9727C81.4532 65.9019 81.1933 66.8797 81.0666 67.8793H55.6985C55.8776 66.8485 56.2503 65.8618 56.7966 64.9727H81.8393ZM59.319 85.3189H52.4841C51.683 84.0089 51.2586 82.4991 51.2586 80.959C51.2586 79.4188 51.683 77.9091 52.4841 76.5991H59.319C58.7453 77.9795 58.4498 79.4617 58.4498 80.959C58.4498 82.4563 58.7453 83.9385 59.319 85.3189ZM32.3591 76.5991H49.2565C48.6828 77.9795 48.3873 79.4617 48.3873 80.959C48.3873 82.4563 48.6828 83.9385 49.2565 85.3189H32.3591C31.558 84.0089 31.1336 82.4991 31.1336 80.959C31.1336 79.4188 31.558 77.9091 32.3591 76.5991ZM71.3726 24.2804C71.3724 25.253 71.3035 26.2243 71.1664 27.187H67.4953L64.1851 24.956V19.9205C64.1851 19.6571 64.1143 19.3987 63.9803 19.1728L59.8726 12.2515V5.90002C63.3113 7.55242 66.2165 10.1559 68.2518 13.4089C70.2871 16.6619 71.3691 20.4313 71.3726 24.2804ZM56.9976 4.78189V12.654C56.9977 12.9174 57.0685 13.1759 57.2025 13.4018L61.3101 20.3231V25.7337C61.3101 25.9729 61.3686 26.2085 61.4802 26.4194C61.5919 26.6303 61.7533 26.8101 61.9502 26.9429L66.2627 29.8494C66.4988 30.0086 66.7763 30.0936 67.0601 30.0936H70.5342C69.0828 35.019 65.8416 39.2066 61.4616 41.8151C57.0817 44.4236 51.8876 45.2597 46.9229 44.1555C41.9582 43.0513 37.5908 40.0885 34.6981 35.8625C31.8053 31.6364 30.6017 26.4602 31.3289 21.3738H34.3128L35.4781 26.0861C35.5558 26.4006 35.7353 26.6797 35.988 26.8792C36.2407 27.0786 36.5521 27.187 36.8726 27.187H41.1851V31.5469C41.1851 31.8338 41.2692 32.1144 41.4266 32.3531L44.0601 36.3468V40.2667C44.0601 40.6521 44.2116 41.0218 44.4812 41.2943C44.7508 41.5669 45.1164 41.72 45.4976 41.72H51.2476C51.4632 41.72 51.676 41.6711 51.8703 41.5767C52.0646 41.4824 52.2354 41.3451 52.3701 41.175L58.1201 33.9085C58.2894 33.6947 58.3955 33.437 58.4262 33.1649C58.4569 32.8928 58.411 32.6175 58.2937 32.3707C58.1764 32.1239 57.9925 31.9156 57.7632 31.7699C57.5339 31.6241 57.2685 31.5468 56.9976 31.5469H54.1226V25.7337C54.1226 25.3483 53.9712 24.9786 53.7016 24.7061C53.432 24.4335 53.0664 24.2804 52.6851 24.2804H44.0601V21.8138L46.2669 18.4672H51.2476C51.4927 18.4672 51.7336 18.4039 51.9476 18.2832C52.1617 18.1626 52.3416 17.9887 52.4704 17.7779C52.5992 17.5672 52.6726 17.3267 52.6836 17.0792C52.6946 16.8317 52.6429 16.5855 52.5333 16.3639L49.6583 10.5508C49.5389 10.3094 49.3554 10.1064 49.1283 9.96449C48.9012 9.82261 48.6396 9.74745 48.3726 9.74744H44.0601V5.27674C48.201 3.67561 52.7489 3.50166 56.9976 4.78189ZM52.6851 34.4535H54.0067L50.5567 38.8134H46.9351V35.9068C46.9351 35.6198 46.8511 35.3393 46.6936 35.1006L44.0601 31.1069V27.187H51.2476V33.0002C51.2476 33.3856 51.3991 33.7553 51.6687 34.0278C51.9383 34.3004 52.3039 34.4535 52.6851 34.4535ZM41.1851 6.66555V11.2007C41.1851 11.5862 41.3366 11.9558 41.6062 12.2284C41.8758 12.5009 42.2414 12.654 42.6226 12.654H47.4843L48.9218 15.5606H45.4976C45.261 15.5606 45.028 15.6197 44.8194 15.7326C44.6108 15.8455 44.4329 16.0087 44.3016 16.2077L41.4266 20.5676C41.2692 20.8063 41.1851 21.0869 41.1851 21.3738V24.2804H37.995L36.8297 19.5681C36.752 19.2537 36.5725 18.9745 36.3198 18.7751C36.0671 18.5756 35.7557 18.4672 35.4351 18.4672H31.9611C33.4402 13.491 36.7385 9.27112 41.1851 6.66555ZM31.9634 6.83958L34.0081 8.90653C30.1342 13.3394 28.0781 19.0989 28.2588 25.0112C28.4395 30.9235 30.8434 36.5437 34.9805 40.7263C39.1177 44.9089 44.6768 47.3392 50.5248 47.5219C56.3729 47.7046 62.0697 45.6259 66.4544 41.7094L68.4989 43.7766C58.3519 52.9645 42.6988 52.6324 32.9513 42.7774C23.2038 32.9224 22.875 17.0979 31.9634 6.83958ZM51.2476 53.3327C52.2074 53.3327 53.1657 53.2843 54.1226 53.1874V56.2529H51.2476V53.3327ZM44.0601 59.1595H61.3101C62.2017 59.1606 63.0712 59.4405 63.7991 59.9609C64.5271 60.4813 65.0781 61.2167 65.3763 62.0661H39.994C40.2922 61.2167 40.8431 60.4813 41.5711 59.9609C42.2991 59.4405 43.1686 59.1606 44.0601 59.1595ZM46.7341 64.9727H53.569C52.9953 66.3531 52.6998 67.8353 52.6998 69.3326C52.6998 70.8299 52.9953 72.3121 53.569 73.6925H46.7341C45.933 72.3825 45.5086 70.8728 45.5086 69.3326C45.5086 67.7925 45.933 66.2827 46.7341 64.9727ZM17.9841 64.9727H23.3815C22.8078 66.3531 22.5123 67.8353 22.5123 69.3326C22.5123 70.8299 22.8078 72.3121 23.3815 73.6925H17.9834C17.1823 72.3825 16.758 70.8728 16.758 69.3326C16.758 67.7925 17.1831 66.2828 17.9841 64.9727ZM23.7341 76.5991H29.1322C28.5585 77.9795 28.263 79.4617 28.263 80.959C28.263 82.4563 28.5585 83.9385 29.1322 85.3189H23.7334C22.9323 84.0088 22.508 82.4991 22.508 80.959C22.508 79.4189 22.9331 77.9091 23.7341 76.5991ZM62.5466 85.3189C62.0003 84.4298 61.6276 83.4432 61.4485 82.4123H86.8161C86.9428 83.4119 87.2027 84.3897 87.5887 85.3189H62.5466ZM86.8161 79.5057H61.4485C61.6276 78.4748 62.0003 77.4882 62.5466 76.5991H87.5892C87.203 77.5283 86.9429 78.506 86.8161 79.5057ZM56.7966 73.6925C56.2503 72.8034 55.8776 71.8168 55.6985 70.7859H81.0661C81.1928 71.7856 81.4527 72.7633 81.8387 73.6925H56.7966Z" fill="#039BE5"/>
</g>
<defs>
<clipPath id="clip0">
<rect width="92" height="93.011" fill="white"/>
</clipPath>
</defs>
</svg>
