<svg width="23" height="23" viewBox="0 0 23 23" fill="none" xmlns="http://www.w3.org/2000/svg">
<g clip-path="url(#clip0)">
<path d="M20.9127 0.014389C20.8889 0.0124588 20.8687 0 20.8438 0H10.5417C8.95667 0 7.66675 1.28992 7.66675 2.875V3.83327C7.66675 4.36234 8.09596 4.79173 8.62502 4.79173C9.15408 4.79173 9.5833 4.36234 9.5833 3.83327V2.875C9.5833 2.34699 10.0136 1.91673 10.5417 1.91673H15.0066L14.7142 2.01447C13.9381 2.28277 13.4167 3.01398 13.4167 3.83327V18.2083H10.5417C10.0136 18.2083 9.5833 17.778 9.5833 17.25V15.3333C9.5833 14.8044 9.15408 14.375 8.62502 14.375C8.09596 14.375 7.66675 14.8044 7.66675 15.3333V17.25C7.66675 18.8351 8.95667 20.125 10.5417 20.125H13.4167V21.0833C13.4167 22.1403 14.2762 23 15.3333 23C15.5384 23 15.733 22.9703 15.9438 22.9051L21.7015 20.9855C22.4787 20.7172 23 19.986 23 19.1667V1.91673C23 0.799294 22.0368 -0.076683 20.9127 0.014389Z" fill="#0693E3"/>
<path d="M10.2608 8.90578L6.42751 5.0725C6.15342 4.79841 5.7414 4.71594 5.3829 4.86456C5.02546 5.01302 4.79173 5.36292 4.79173 5.75002V8.62502H0.958275C0.42939 8.62502 0 9.05441 0 9.58329C0 10.1124 0.42939 10.5417 0.958275 10.5417H4.79173V13.4167C4.79173 13.8038 5.02546 14.1536 5.3829 14.3022C5.7414 14.4506 6.15342 14.3683 6.42751 14.0943L10.2608 10.2608C10.6356 9.88616 10.6356 9.2806 10.2608 8.90578Z" fill="#0693E3"/>
</g>
<defs>
<clipPath id="clip0">
<rect width="23" height="23" fill="white"/>
</clipPath>
</defs>
</svg>
