<svg width="20" height="30" viewBox="0 0 20 30" fill="none" xmlns="http://www.w3.org/2000/svg">
<path d="M8.52342 21.1313C6.19772 20.8887 4.10076 20.3159 2.30543 18.9118C2.08266 18.7371 1.85267 18.5687 1.64938 18.3736C0.863572 17.6189 0.784394 16.7545 1.40619 15.8637C1.93813 15.1015 2.83108 14.8976 3.75923 15.3353C3.93895 15.4201 4.11019 15.526 4.2742 15.6397C7.6201 17.9387 12.2165 18.0022 15.575 15.7431C15.9077 15.488 16.2634 15.28 16.6756 15.1738C17.4771 14.968 18.2246 15.2624 18.6548 15.9637C19.1462 16.7645 19.1399 17.5463 18.5344 18.1681C17.6056 19.1214 16.4887 19.811 15.2476 20.2924C14.0741 20.7473 12.7887 20.9764 11.5165 21.1285C11.7085 21.3374 11.7989 21.4401 11.919 21.5608C13.6464 23.2964 15.3814 25.0248 17.1032 26.7658C17.6899 27.359 17.8124 28.0945 17.4894 28.7845C17.1362 29.5386 16.3457 30.0347 15.5706 29.9816C15.0795 29.9477 14.6965 29.7032 14.3562 29.3605C13.0526 28.0487 11.7245 26.7611 10.4473 25.4245C10.0756 25.0358 9.89678 25.1093 9.56876 25.4468C8.2573 26.7969 6.92447 28.1263 5.58378 29.4481C4.98177 30.0416 4.2654 30.1485 3.56725 29.8094C2.82511 29.4497 2.35287 28.6922 2.38932 27.9309C2.41446 27.4159 2.6677 27.0225 3.02117 26.6697C4.73073 24.9626 6.43557 23.2512 8.14104 21.5413C8.25384 21.4276 8.3591 21.3069 8.52342 21.1313Z" fill="white"/>
<path d="M9.94016 15.1849C5.79116 15.1708 2.38902 11.7313 2.41321 7.57567C2.43709 3.37421 5.84143 -0.0115955 10.0313 2.98477e-05C14.2296 0.011341 17.5994 3.44585 17.5783 7.69098C17.557 11.8381 14.1313 15.1994 9.94016 15.1849ZM13.7109 7.58573C13.7036 5.52238 12.0604 3.87975 10.0011 3.87787C7.92457 3.87567 6.26655 5.54815 6.28257 7.63034C6.29797 9.68583 7.95536 11.3168 10.0203 11.3093C12.0789 11.3021 13.7178 9.64876 13.7109 7.58573Z" fill="white"/>
</svg>
